# xmcd CD database file
#
# Track frame offsets:
#	187
#	19800
#	33975
#	49275
#	68212
#	88537
#	110400
#	124987
#	145012
#	161250
#
# Disc length: 2413 seconds
#
# Revision: 0
# Processed by: cddbd v1.5.1PL0 Copyright (c) Steve Scherf et al.
# Submitted via: CDex 1.51
#
DISCID=81096b0a
DTITLE=marquee moon - もっと強くなれるよ
DYEAR=1990
DGENRE=JPop
TTITLE0=愛と未来とロックンロール
TTITLE1=僕のこと忘れる前に
TTITLE2=Dream
TTITLE3=涙をためたシーラカンス
TTITLE4=坂
TTITLE5=飛行船が見えた日
TTITLE6=どこまで続けるの
TTITLE7=戦士達の歌
TTITLE8=銀色おもちゃ
TTITLE9=Juliet　Game
EXTD=YEAR: 1990
EXTT0=
EXTT1=
EXTT2=
EXTT3=
EXTT4=
EXTT5=
EXTT6=
EXTT7=
EXTT8=
EXTT9=
PLAYORDER=
